# xmcd
#
# Track frame offsets:
#	150
#	18678
#	37581
#	62709
#	81087
#	106965
#	120468
#	142671
#	178749
#	192552
#	206880
#	233808
#	258261
#
# Disc length: 3697 seconds
#
# Revision: 0
# Processed by: cddbd v1.4PL0 Copyright (c) Steve Scherf et al.
# Submitted via: audiograbber 1.81.01
#
DISCID=ac0e6f0d
DTITLE=Albert Collins - Deluxe Edition
DYEAR=1997
DGENRE=Blues
TTITLE0=I Ain't Drunk
TTITLE1=If You Love Me Like You Say
TTITLE2=Blue Monday Hangover
TTITLE3=Melt Down
TTITLE4=Mastercharge
TTITLE5=Too Tired
TTITLE6=If Trouble Was Money
TTITLE7=T-Bone Shuffle
TTITLE8=Get To Gettin'
TTITLE9=But I Was Cool
TTITLE10=Cold Cuts
TTITLE11=When The Welfare Turns It Back On You
TTITLE12=A Good Fool Is Hard To Find
EXTD=Alligator 5601\n© 1997
EXTT0=
EXTT1=
EXTT2=
EXTT3=
EXTT4=
EXTT5=
EXTT6=
EXTT7=
EXTT8=
EXTT9=
EXTT10=
EXTT11=
EXTT12=
PLAYORDER=
